<svg width="60" height="60" viewBox="0 0 60 60" fill="none" xmlns="http://www.w3.org/2000/svg">
<path d="M39.375 43.125C41.4461 43.125 43.125 41.4461 43.125 39.375C43.125 37.3039 41.4461 35.625 39.375 35.625C37.3039 35.625 35.625 37.3039 35.625 39.375C35.625 41.4461 37.3039 43.125 39.375 43.125Z" fill="#2B2B2B"/>
<path d="M13.125 16.875C15.1961 16.875 16.875 15.1961 16.875 13.125C16.875 11.0539 15.1961 9.375 13.125 9.375C11.0539 9.375 9.375 11.0539 9.375 13.125C9.375 15.1961 11.0539 16.875 13.125 16.875Z" fill="#2B2B2B"/>
<path d="M50.625 58.125C49.1416 58.125 47.6916 57.6851 46.4582 56.861C45.2249 56.0369 44.2636 54.8656 43.6959 53.4951C43.1282 52.1247 42.9797 50.6167 43.2691 49.1618C43.5585 47.707 44.2728 46.3706 45.3217 45.3217C46.3706 44.2728 47.707 43.5585 49.1618 43.2691C50.6167 42.9797 52.1247 43.1282 53.4951 43.6959C54.8656 44.2636 56.0369 45.2249 56.861 46.4582C57.6851 47.6916 58.125 49.1416 58.125 50.625C58.1191 52.6123 57.327 54.5165 55.9217 55.9217C54.5165 57.327 52.6123 58.1191 50.625 58.125ZM50.625 46.875C49.8833 46.875 49.1583 47.0949 48.5416 47.507C47.9249 47.919 47.4443 48.5047 47.1605 49.1899C46.8766 49.8752 46.8024 50.6292 46.9471 51.3566C47.0918 52.084 47.4489 52.7522 47.9734 53.2767C48.4978 53.8011 49.166 54.1583 49.8934 54.3029C50.6208 54.4476 51.3748 54.3734 52.0601 54.0896C52.7453 53.8057 53.331 53.3251 53.743 52.7084C54.1551 52.0917 54.375 51.3667 54.375 50.625C54.372 49.6314 53.976 48.6792 53.2734 47.9766C52.5708 47.274 51.6187 46.878 50.625 46.875Z" fill="#2B2B2B"/>
<path d="M56.25 30C56.2297 23.0444 53.4576 16.3793 48.5392 11.4609C43.6207 6.54246 36.9557 3.77033 30 3.75005C25.5211 3.68616 21.1107 4.85362 17.25 7.12505L19.3125 10.3125C20.7781 9.6081 22.2803 8.98221 23.8125 8.43755C20.7129 14.5536 18.9852 21.2724 18.75 28.125H7.5C7.71009 25.0291 8.60678 22.0188 10.125 19.3125L7.3125 16.875C4.97947 20.8556 3.74975 25.3862 3.75 30C3.74951 33.4474 4.42815 36.861 5.74716 40.0461C7.06617 43.2311 8.99971 46.1251 11.4373 48.5627C13.875 51.0003 16.769 52.9339 19.954 54.2529C23.139 55.5719 26.5527 56.2505 30 56.25C33.3425 56.2815 36.6576 55.644 39.75 54.375L38.625 50.8125C35.5509 52.1271 32.2121 52.705 28.875 52.5C24.8765 46.3502 22.6691 39.2086 22.5 31.875H56.0625C56.2175 31.2628 56.2807 30.6309 56.25 30ZM24 51.75C20.2715 50.6325 16.8643 48.6396 14.0625 45.9375C10.3422 42.1308 8.0279 37.1716 7.5 31.875H18.75C19.008 38.8069 20.8011 45.5951 24 51.75ZM22.5 28.125C22.6491 20.8154 24.7883 13.6847 28.6875 7.50005H31.3125C35.2117 13.6847 37.3509 20.8154 37.5 28.125H22.5ZM41.25 28.125C41.1073 21.1765 39.3074 14.3626 36 8.25005C40.4116 9.52163 44.3333 12.1026 47.2461 15.6516C50.1589 19.2005 51.9256 23.5501 52.3125 28.125H41.25Z" fill="#2B2B2B"/>
</svg>
