<svg width="60" height="60" viewBox="0 0 60 60" fill="none" xmlns="http://www.w3.org/2000/svg">
<path d="M47.5 7.5H12.5C8.965 7.5 7.1975 7.5 6.1 8.53C5 9.56 5 11.22 5 14.5375V16.2625C5 18.855 5 20.1525 5.65 21.2275C6.3 22.3025 7.4825 22.9725 9.855 24.3075L17.1375 28.4075C18.7275 29.3025 19.525 29.75 20.095 30.245C21.28 31.2725 22.01 32.4825 22.34 33.97C22.5 34.68 22.5 35.515 22.5 37.1825V43.8575C22.5 46.13 22.5 47.2675 23.13 48.1525C23.76 49.04 24.88 49.4775 27.115 50.3525C31.8125 52.1875 34.16 53.105 35.83 52.06C37.5 51.0175 37.5 48.63 37.5 43.855V37.18C37.5 35.515 37.5 34.68 37.66 33.9675C37.974 32.5104 38.7648 31.1996 39.9075 30.2425C40.475 29.75 41.2725 29.3025 42.8625 28.405L50.145 24.305C52.515 22.9725 53.7025 22.305 54.35 21.23C55 20.155 55 18.855 55 16.26V14.535C55 11.22 55 9.56 53.9 8.53C52.805 7.5 51.0375 7.5 47.5 7.5Z" fill="#2B2B2B"/>
</svg>
