<svg width="130" height="130" viewBox="0 0 130 130" fill="none" xmlns="http://www.w3.org/2000/svg">
<ellipse opacity="0.3" cx="65" cy="64" rx="52" ry="51" fill="#FBFBFB"/>
<circle opacity="0.2" cx="65" cy="64" r="58" fill="#FBFBFB"/>
<circle opacity="0.1" cx="65" cy="65" r="65" fill="#FBFBFB"/>
<ellipse cx="65.5" cy="64" rx="43.5" ry="43" fill="#2B2B2B"/>
<path fill-rule="evenodd" clip-rule="evenodd" d="M55.6714 46.0031C61.963 45.512 68.2824 45.5444 74.569 46.0997L78.356 46.4333C79.7466 46.5559 81.057 47.1592 82.0765 48.1463C83.096 49.1334 83.7654 50.4469 83.977 51.8756L84.215 53.4923C85.0262 58.973 84.9505 64.5553 83.991 70.0103C83.7616 71.3144 83.0976 72.4939 82.1148 73.3431C81.132 74.1923 79.8926 74.6575 78.6127 74.6575H57.6687C57.1857 74.6575 56.712 74.7808 56.2874 75.0176L47.1617 80.0974C46.895 80.2458 46.5958 80.3201 46.2931 80.3128C45.9905 80.3056 45.6948 80.2172 45.435 80.0563C45.1752 79.8953 44.9602 79.6673 44.8109 79.3945C44.6616 79.1218 44.5832 78.8135 44.5834 78.5V57.9172C44.584 54.913 45.6803 52.02 47.6529 49.8174C49.6255 47.6149 52.3287 46.2654 55.221 46.0393L55.6714 46.0031ZM55.6667 57.9583C54.8932 57.9583 54.1513 58.2766 53.6043 58.8431C53.0573 59.4096 52.75 60.178 52.75 60.9792C52.75 61.7803 53.0573 62.5487 53.6043 63.1152C54.1513 63.6817 54.8932 64 55.6667 64C56.4403 64 57.1821 63.6817 57.7291 63.1152C58.2761 62.5487 58.5834 61.7803 58.5834 60.9792C58.5834 60.178 58.2761 59.4096 57.7291 58.8431C57.1821 58.2766 56.4403 57.9583 55.6667 57.9583ZM65 57.9583C64.2265 57.9583 63.4846 58.2766 62.9376 58.8431C62.3907 59.4096 62.0834 60.178 62.0834 60.9792C62.0834 61.7803 62.3907 62.5487 62.9376 63.1152C63.4846 63.6817 64.2265 64 65 64C65.7736 64 66.5155 63.6817 67.0624 63.1152C67.6094 62.5487 67.9167 61.7803 67.9167 60.9792C67.9167 60.178 67.6094 59.4096 67.0624 58.8431C66.5155 58.2766 65.7736 57.9583 65 57.9583ZM71.4167 60.9792C71.4167 60.178 71.724 59.4096 72.271 58.8431C72.818 58.2766 73.5598 57.9583 74.3334 57.9583C75.1069 57.9583 75.8488 58.2766 76.3958 58.8431C76.9428 59.4096 77.25 60.178 77.25 60.9792C77.25 61.7803 76.9428 62.5487 76.3958 63.1152C75.8488 63.6817 75.1069 64 74.3334 64C73.5598 64 72.818 63.6817 72.271 63.1152C71.724 62.5487 71.4167 61.7803 71.4167 60.9792Z" fill="#FBFBFB"/>
</svg>
