<svg width="60" height="60" viewBox="0 0 60 60" fill="none" xmlns="http://www.w3.org/2000/svg">
<path d="M17.5 30V32.5H42.5V30C42.5 28.0139 43.2877 26.1089 44.6905 24.7029C46.0932 23.2969 47.9964 22.5046 49.9825 22.5C49.9798 21.8462 49.9212 21.1938 49.8075 20.55C49.4217 18.61 48.4692 16.828 47.0706 15.4294C45.6719 14.0307 43.8899 13.0783 41.95 12.6925C40.985 12.5 39.825 12.5 37.5 12.5H22.5C20.175 12.5 19.015 12.5 18.05 12.6925C16.11 13.0783 14.328 14.0307 12.9293 15.4294C11.5307 16.828 10.5782 18.61 10.1925 20.55C10.0787 21.1938 10.0201 21.8462 10.0175 22.5C12.0035 22.5046 13.9067 23.2969 15.3094 24.7029C16.7122 26.1089 17.5 28.0139 17.5 30Z" fill="#2B2B2B"/>
<path d="M46.11 45H13.89C13.2118 45.0001 12.5358 44.923 11.875 44.77V47.5C11.875 47.9973 11.6775 48.4742 11.3258 48.8258C10.9742 49.1775 10.4973 49.375 10 49.375C9.50272 49.375 9.02581 49.1775 8.67418 48.8258C8.32255 48.4742 8.12501 47.9973 8.12501 47.5V42.8775C7.14427 42.0438 6.35674 41.0066 5.8171 39.838C5.27746 38.6693 4.99864 37.3972 5 36.11V30C5 28.6739 5.52679 27.4021 6.46447 26.4645C7.40215 25.5268 8.67392 25 10 25C11.3261 25 12.5979 25.5268 13.5355 26.4645C14.4732 27.4021 15 28.6739 15 30V33C15 33.5304 15.2107 34.0391 15.5858 34.4142C15.9609 34.7893 16.4696 35 17 35H43C43.5304 35 44.0391 34.7893 44.4142 34.4142C44.7893 34.0391 45 33.5304 45 33V30C45 28.6739 45.5268 27.4021 46.4645 26.4645C47.4022 25.5268 48.6739 25 50 25C51.3261 25 52.5979 25.5268 53.5355 26.4645C54.4732 27.4021 55 28.6739 55 30V36.11C55.0014 37.3972 54.7225 38.6693 54.1829 39.838C53.6433 41.0066 52.8557 42.0438 51.875 42.8775V47.5C51.875 47.9973 51.6775 48.4742 51.3258 48.8258C50.9742 49.1775 50.4973 49.375 50 49.375C49.5027 49.375 49.0258 49.1775 48.6742 48.8258C48.3225 48.4742 48.125 47.9973 48.125 47.5V44.77C47.4643 44.923 46.7882 45.0001 46.11 45Z" fill="#2B2B2B"/>
</svg>
