<svg width="70" height="74" viewBox="0 0 70 74" fill="none" xmlns="http://www.w3.org/2000/svg">
<path d="M32.0503 2.91225C32.6566 -0.358665 37.3434 -0.358662 37.9497 2.91226L39.8947 13.4041C40.3284 15.7439 43.1832 16.6715 44.9094 15.0335L52.6499 7.68862C55.063 5.39879 58.8547 8.15362 57.4227 11.1563L52.8292 20.7876C51.8048 22.9354 53.5692 25.3639 55.9285 25.0534L66.5079 23.6609C69.8061 23.2268 71.2543 27.6842 68.3309 29.2717L58.9535 34.3636C56.8623 35.4991 56.8623 38.5009 58.9535 39.6364L68.3309 44.7283C71.2543 46.3158 69.806 50.7732 66.5079 50.3391L55.9285 48.9466C53.5692 48.6361 51.8048 51.0646 52.8292 53.2124L57.4227 62.8438C58.8547 65.8464 55.063 68.6012 52.6499 66.3114L44.9094 58.9665C43.1832 57.3285 40.3284 58.2561 39.8947 60.5959L37.9497 71.0877C37.3434 74.3587 32.6566 74.3587 32.0503 71.0877L30.1053 60.5959C29.6716 58.2561 26.8168 57.3285 25.0906 58.9665L17.3501 66.3114C14.937 68.6012 11.1453 65.8464 12.5773 62.8438L17.1708 53.2124C18.1952 51.0646 16.4308 48.6361 14.0715 48.9466L3.49215 50.3391C0.193947 50.7732 -1.25435 46.3158 1.66911 44.7283L11.0465 39.6364C13.1377 38.5009 13.1377 35.4991 11.0465 34.3636L1.66911 29.2717C-1.25435 27.6842 0.193951 23.2268 3.49215 23.6609L14.0715 25.0534C16.4309 25.3639 18.1952 22.9354 17.1708 20.7876L12.5773 11.1562C11.1453 8.15362 14.937 5.39879 17.3501 7.68862L25.0906 15.0335C26.8168 16.6715 29.6716 15.7439 30.1053 13.4041L32.0503 2.91225Z" fill="#C38154"/>
</svg>
